<?xml version="1.0" encoding="UTF-8" standalone="no"?>
<!-- Created with Inkscape (http://www.inkscape.org/) -->

<svg
   width="39.281101mm"
   height="40.565784mm"
   viewBox="0 0 39.281101 40.565784"
   version="1.1"
   id="svg5"
   inkscape:version="1.4 (e7c3feb, 2024-10-09)"
   sodipodi:docname="cell_intersection.svg"
   xmlns:inkscape="http://www.inkscape.org/namespaces/inkscape"
   xmlns:sodipodi="http://sodipodi.sourceforge.net/DTD/sodipodi-0.dtd"
   xmlns="http://www.w3.org/2000/svg"
   xmlns:svg="http://www.w3.org/2000/svg"
   xmlns:ns3="http://www.iki.fi/pav/software/textext/">
  <sodipodi:namedview
     id="namedview7"
     pagecolor="#ffffff"
     bordercolor="#ffffff"
     borderopacity="1"
     inkscape:showpageshadow="false"
     inkscape:pageopacity="0"
     inkscape:pagecheckerboard="false"
     inkscape:deskcolor="#a1a1a1"
     inkscape:document-units="mm"
     showgrid="false"
     inkscape:zoom="3.1472566"
     inkscape:cx="196.67923"
     inkscape:cy="97.227534"
     inkscape:window-width="1914"
     inkscape:window-height="1027"
     inkscape:window-x="0"
     inkscape:window-y="50"
     inkscape:window-maximized="1"
     inkscape:current-layer="layer1"
     showborder="true"
     shape-rendering="auto"
     showguides="true">
    <sodipodi:guide
       position="7.5412549,84.455524"
       orientation="0.96592582,-0.25881906"
       id="guide1"
       inkscape:locked="false" />
    <sodipodi:guide
       position="27.772722,72.022767"
       orientation="0.50000003,-0.86602538"
       id="guide2"
       inkscape:locked="false" />
  </sodipodi:namedview>
  <defs
     id="defs2">
    <marker
       style="overflow:visible"
       id="Triangle_Fnone_S-000000"
       refX="0"
       refY="0"
       orient="auto-start-reverse"
       inkscape:stockid="Triangle arrow"
       markerWidth="0.60000002"
       markerHeight="0.60000002"
       viewBox="0 0 1 1"
       inkscape:isstock="true"
       inkscape:collect="always"
       preserveAspectRatio="xMidYMid">
      <path
         transform="scale(0.5)"
         style="fill:#000000;fill-rule:evenodd;stroke:#000000;stroke-width:1pt"
         d="M 5.77,0 -2.88,5 V -5 Z"
         id="path4" />
    </marker>
  </defs>
  <g
     inkscape:label="Layer 1"
     inkscape:groupmode="layer"
     id="layer1"
     transform="translate(-50.5229, -4.08806)">
    <path
       style="font-variation-settings:normal;opacity:1;fill:none;fill-opacity:1;fill-rule:evenodd;stroke:#888a85;stroke-width:0.7;stroke-linecap:butt;stroke-linejoin:miter;stroke-miterlimit:4;stroke-dasharray:none;stroke-dashoffset:0;stroke-opacity:1;paint-order:markers fill stroke;stop-color:#000000;stop-opacity:1"
       id="path1"
       sodipodi:type="arc"
       sodipodi:cx="50.420467"
       sodipodi:cy="48.158993"
       sodipodi:rx="41.535885"
       sodipodi:ry="41.535885"
       sodipodi:start="4.8393703"
       sodipodi:end="5.9192275"
       sodipodi:open="true"
       sodipodi:arc-type="arc"
       d="M 55.680586,6.9575258 A 41.535885,41.535885 0 0 1 89.235555,33.373233" />
    <path
       style="font-variation-settings:normal;fill:none;fill-opacity:1;fill-rule:evenodd;stroke:#888a85;stroke-width:0.7;stroke-linecap:butt;stroke-linejoin:miter;stroke-miterlimit:4;stroke-dasharray:none;stroke-dashoffset:0;stroke-opacity:1;paint-order:markers fill stroke;stop-color:#000000"
       id="path1-3"
       sodipodi:type="arc"
       sodipodi:cx="50.420467"
       sodipodi:cy="48.158993"
       sodipodi:rx="14.973878"
       sodipodi:ry="14.973878"
       sodipodi:start="4.7193904"
       sodipodi:end="6.041142"
       sodipodi:open="true"
       sodipodi:arc-type="arc"
       d="M 50.525305,33.185482 A 14.973878,14.973878 0 0 1 64.95786,44.569951" />
    <path
       style="font-variation-settings:normal;opacity:1;fill:none;fill-opacity:1;fill-rule:evenodd;stroke:#888a85;stroke-width:0.7;stroke-linecap:butt;stroke-linejoin:miter;stroke-miterlimit:4;stroke-dasharray:none;stroke-dashoffset:0;stroke-opacity:1;paint-order:markers fill stroke;stop-color:#000000;stop-opacity:1"
       d="M 59.075229,43.162161 89.628957,25.521959"
       id="path2"
       sodipodi:nodetypes="cc" />
    <path
       style="font-variation-settings:normal;opacity:1;fill:none;fill-opacity:1;fill-rule:evenodd;stroke:#888a85;stroke-width:0.7;stroke-linecap:butt;stroke-linejoin:miter;stroke-miterlimit:4;stroke-dasharray:none;stroke-dashoffset:0;stroke-opacity:1;paint-order:markers fill stroke;stop-color:#000000;stop-opacity:1"
       d="M 53.24236,37.627541 62.204967,4.1786436"
       id="path3"
       sodipodi:nodetypes="cc" />
    <path
       style="fill:#d3d7cf;stroke:none;stroke-width:3.77953;stroke-dasharray:none;paint-order:markers fill stroke"
       d="m 46.146889,131.88768 c -6.708131,-8.98303 -17.748972,-17.09703 -27.333371,-20.08752 -1.606897,-0.50137 -2.417379,-0.97734 -2.417379,-1.41963 0,-0.83904 24.66877,-92.93785 24.975727,-93.244806 0.325082,-0.325082 4.692672,0.947007 10.759448,3.13376 29.896114,10.775972 55.689956,30.329167 74.182706,56.234686 4.22233,5.914831 7.11743,10.739593 6.69675,11.160276 -0.86995,0.869945 -82.761164,47.919014 -83.405399,47.919014 -0.388966,0 -1.921952,-1.63817 -3.458482,-3.69578 z"
       id="path33"
       transform="matrix(0.26458333,0,0,0.26458333,50.522854,4.0880569)" />
    <path
       style="font-variation-settings:normal;opacity:1;fill:none;fill-opacity:1;fill-rule:evenodd;stroke:#000000;stroke-width:1;stroke-linecap:butt;stroke-linejoin:miter;stroke-miterlimit:4;stroke-dasharray:none;stroke-dashoffset:0;stroke-opacity:1;marker-end:url(#Triangle_Fnone_S-000000);paint-order:markers fill stroke;stop-color:#000000;stop-opacity:1"
       d="M 51.576843,19.632532 H 86.12296"
       id="path11"
       sodipodi:nodetypes="cc" />
    <circle
       style="font-variation-settings:normal;vector-effect:none;fill:#000000;fill-opacity:1;fill-rule:evenodd;stroke:none;stroke-width:0.999999;stroke-linecap:butt;stroke-linejoin:miter;stroke-miterlimit:4;stroke-dasharray:none;stroke-dashoffset:0;stroke-opacity:1;-inkscape-stroke:none;paint-order:markers fill stroke;stop-color:#000000"
       id="path26-4"
       cx="58.06411"
       cy="19.632532"
       r="1.3078129" />
    <circle
       style="font-variation-settings:normal;vector-effect:none;fill:#000000;fill-opacity:1;fill-rule:evenodd;stroke:none;stroke-width:0.999999;stroke-linecap:butt;stroke-linejoin:miter;stroke-miterlimit:4;stroke-dasharray:none;stroke-dashoffset:0;stroke-opacity:1;-inkscape-stroke:none;paint-order:markers fill stroke;stop-color:#000000"
       id="path26-4-2"
       cx="80.610237"
       cy="19.631678"
       r="1.3078129" />
    <g
       inkscape:label=""
       transform="translate(63.821567,24.940365)"
       id="g18">
      <g
         fill="#000000"
         fill-opacity="1"
         id="g15"
         transform="matrix(0.352778,0,0,0.352778,-0.907036,-0.627812)">
        <g
           id="g14"
           transform="translate(1.993,10.889)">
          <path
             d="m 0.640625,3.578125 c -0.015625,0.09375 -0.0625,0.21875 -0.0625,0.34375 0,0.3125 0.25,0.515625 0.5625,0.515625 0.3125,0 0.59375,-0.203125 0.71875,-0.484375 0.078125,-0.1875 0.65625,-2.671875 1.328125,-5.21875 0.40625,1.03125 1.171875,1.46875 1.984375,1.46875 2.328125,0 4.96875,-2.890625 4.96875,-6 0,-2.21875 -1.34375,-3.3125 -2.765625,-3.3125 -1.8125,0 -4.03125,1.875 -4.703125,4.625 z m 4.5,-3.78125 c -1.40625,0 -1.75,-1.640625 -1.75,-1.890625 0,-0.109375 0.515625,-2.078125 0.578125,-2.390625 1.046875,-4.109375 3.078125,-4.21875 3.390625,-4.21875 0.921875,0 1.4375,0.859375 1.4375,2.078125 0,1.046875 -0.5625,3.09375 -0.90625,3.953125 -0.625,1.4375 -1.6875,2.46875 -2.75,2.46875 z m 0,0"
             id="path14" />
        </g>
      </g>
      <g
         fill="#000000"
         fill-opacity="1"
         id="g17"
         transform="matrix(0.352778,0,0,0.352778,-0.907036,-0.627812)">
        <g
           id="g16"
           transform="translate(12.428,13.988)">
          <path
             d="M 4.0625,-2.046875 C 4.0625,-2.125 4,-2.1875 3.921875,-2.1875 c -0.140625,0 -0.15625,0.046875 -0.21875,0.296875 -0.375,1.296875 -0.96875,1.75 -1.4375,1.75 -0.171875,0 -0.375,-0.046875 -0.375,-0.46875 0,-0.390625 0.171875,-0.828125 0.328125,-1.25 L 3.234375,-4.53125 C 3.265625,-4.640625 3.375,-4.90625 3.375,-5.171875 c 0,-0.609375 -0.4375,-1.15625 -1.140625,-1.15625 -1.3125,0 -1.84375,2.078125 -1.84375,2.203125 0,0.046875 0.046875,0.125 0.15625,0.125 C 0.671875,-4 0.6875,-4.0625 0.75,-4.265625 1.09375,-5.46875 1.640625,-6.03125 2.1875,-6.03125 c 0.140625,0 0.375,0 0.375,0.46875 0,0.375 -0.1875,0.84375 -0.296875,1.15625 l -1,2.671875 C 1.171875,-1.5 1.09375,-1.28125 1.09375,-1.015625 c 0,0.640625 0.4375,1.15625 1.125,1.15625 1.328125,0 1.84375,-2.09375 1.84375,-2.1875 z m -0.125,-6.90625 c 0,-0.21875 -0.171875,-0.46875 -0.484375,-0.46875 -0.328125,0 -0.703125,0.3125 -0.703125,0.6875 0,0.359375 0.3125,0.46875 0.484375,0.46875 0.375,0 0.703125,-0.375 0.703125,-0.6875 z m 0,0"
             id="path15" />
        </g>
      </g>
    </g>
    <g
       transform="matrix(0.529167,0,0,0.529167,63.900397,12.474098)"
       ns3:version="1.10.2"
       ns3:texconverter="pdflatex"
       ns3:pdfconverter="inkscape"
       ns3:text="$\\Delta l_i$"
       ns3:preamble="/home/evan/.config/inkscape/extensions/textext/default_packages.tex"
       ns3:scale="1.5"
       ns3:alignment="middle center"
       ns3:stroke-to-path="0"
       ns3:inkscapeversion="1.3.2"
       ns3:jacobian_sqrt="0.529167"
       id="g32">
      <defs
         id="id-d8c9b544-4489-4703-be61-e75d8a2c45a7">
        <g
           id="id-eb4efd04-f83c-4368-b12d-bd7f1c91656a">
          <symbol
             overflow="visible"
             id="id-a29904a2-2d4e-4f23-9485-507e0c730e5b">
            <path
               style="stroke:none;stroke-width:0"
               d=""
               id="id-40f9e748-84b3-487b-82ad-5bc65cad2f27" />
          </symbol>
          <symbol
             overflow="visible"
             id="id-c145c391-2c8a-4a59-ac0c-a8fb36cf8775">
            <path
               style="stroke:none;stroke-width:0"
               d="m 4.40625,-6.953125 c -0.0625,-0.140625 -0.09375,-0.1875 -0.265625,-0.1875 -0.15625,0 -0.1875,0.046875 -0.25,0.1875 l -3.375,6.75 C 0.46875,-0.109375 0.46875,-0.09375 0.46875,-0.078125 0.46875,0 0.53125,0 0.6875,0 h 6.921875 c 0.15625,0 0.21875,0 0.21875,-0.078125 0,-0.015625 0,-0.03125 -0.046875,-0.125 z m -0.578125,0.8125 2.6875,5.390625 h -5.375 z m 0,0"
               id="id-66ef36c4-8891-4fad-87c2-e28276c9cc0d" />
          </symbol>
          <symbol
             overflow="visible"
             id="id-df4f95f7-da96-41a7-875b-ad6b8c43e6f1">
            <path
               style="stroke:none;stroke-width:0"
               d=""
               id="id-d472e371-3799-4045-a7b3-55b7b6cf8b2e" />
          </symbol>
          <symbol
             overflow="visible"
             id="id-e58299cb-11ef-44c5-9bda-88c2f7518904">
            <path
               style="stroke:none;stroke-width:0"
               d="m 2.578125,-6.8125 c 0,0 0,-0.109375 -0.140625,-0.109375 -0.21875,0 -0.953125,0.078125 -1.21875,0.109375 -0.078125,0 -0.1875,0.015625 -0.1875,0.203125 0,0.109375 0.109375,0.109375 0.25,0.109375 0.484375,0 0.5,0.09375 0.5,0.171875 L 1.75,-6.125 0.484375,-1.140625 C 0.453125,-1.03125 0.4375,-0.96875 0.4375,-0.8125 c 0,0.578125 0.4375,0.921875 0.90625,0.921875 0.328125,0 0.578125,-0.203125 0.75,-0.5625 0.171875,-0.375 0.296875,-0.953125 0.296875,-0.96875 0,-0.109375 -0.09375,-0.109375 -0.125,-0.109375 -0.09375,0 -0.109375,0.046875 -0.125,0.1875 C 1.96875,-0.703125 1.78125,-0.109375 1.375,-0.109375 c -0.296875,0 -0.296875,-0.3125 -0.296875,-0.453125 0,-0.25 0.015625,-0.296875 0.0625,-0.484375 z m 0,0"
               id="id-e26bebf9-ebda-4741-925b-745fcc2cd9a3" />
          </symbol>
          <symbol
             overflow="visible"
             id="id-3997c7ac-6cf9-4562-9ecd-182db4611ab3">
            <path
               style="stroke:none;stroke-width:0"
               d=""
               id="id-46ebb6df-c188-4e12-92f8-c9d0b51ee3b9" />
          </symbol>
          <symbol
             overflow="visible"
             id="id-8a4e8cc7-d653-41d7-86f4-8aae5156cc42">
            <path
               style="stroke:none;stroke-width:0"
               d="m 2.265625,-4.359375 c 0,-0.109375 -0.09375,-0.265625 -0.28125,-0.265625 -0.1875,0 -0.390625,0.1875 -0.390625,0.390625 0,0.109375 0.078125,0.265625 0.28125,0.265625 0.1875,0 0.390625,-0.203125 0.390625,-0.390625 z M 0.84375,-0.8125 c -0.03125,0.09375 -0.0625,0.171875 -0.0625,0.296875 0,0.328125 0.265625,0.578125 0.65625,0.578125 0.6875,0 1,-0.953125 1,-1.0625 0,-0.09375 -0.09375,-0.09375 -0.109375,-0.09375 -0.09375,0 -0.109375,0.046875 -0.140625,0.125 -0.15625,0.5625 -0.453125,0.84375 -0.734375,0.84375 -0.140625,0 -0.171875,-0.09375 -0.171875,-0.25 0,-0.15625 0.046875,-0.28125 0.109375,-0.4375 C 1.46875,-1 1.546875,-1.1875 1.609375,-1.375 1.671875,-1.546875 1.9375,-2.171875 1.953125,-2.265625 1.984375,-2.328125 2,-2.40625 2,-2.484375 2,-2.8125 1.71875,-3.078125 1.34375,-3.078125 0.640625,-3.078125 0.328125,-2.125 0.328125,-2 c 0,0.078125 0.09375,0.078125 0.125,0.078125 0.09375,0 0.09375,-0.03125 0.125,-0.109375 C 0.75,-2.625 1.0625,-2.875 1.3125,-2.875 c 0.109375,0 0.171875,0.046875 0.171875,0.234375 0,0.171875 -0.03125,0.265625 -0.203125,0.703125 z m 0,0"
               id="id-78c5242e-de71-4eb0-87ec-843fe5ea7708" />
          </symbol>
        </g>
      </defs>
      <g
         id="id-66f67ef4-1b3f-4692-9154-36cf25abf03c"
         transform="translate(-149.181,-127.624)">
        <g
           style="fill:#000000;fill-opacity:1"
           id="id-ce66c163-e4b9-4a58-bffc-44c7255c92ca">
          <g
             transform="translate(148.712,134.765)"
             id="g29">
            <path
               style="stroke:none;stroke-width:0"
               d="m 4.40625,-6.953125 c -0.0625,-0.140625 -0.09375,-0.1875 -0.265625,-0.1875 -0.15625,0 -0.1875,0.046875 -0.25,0.1875 l -3.375,6.75 C 0.46875,-0.109375 0.46875,-0.09375 0.46875,-0.078125 0.46875,0 0.53125,0 0.6875,0 h 6.921875 c 0.15625,0 0.21875,0 0.21875,-0.078125 0,-0.015625 0,-0.03125 -0.046875,-0.125 z m -0.578125,0.8125 2.6875,5.390625 h -5.375 z m 0,0"
               id="id-98824e84-0699-488c-8ed7-cd8b4603e3f2" />
          </g>
        </g>
        <g
           style="fill:#000000;fill-opacity:1"
           id="id-9fb5ea52-043e-4d0c-8d26-4f294a431c97">
          <g
             transform="translate(157.015,134.765)"
             id="g30">
            <path
               style="stroke:none;stroke-width:0"
               d="m 2.578125,-6.8125 c 0,0 0,-0.109375 -0.140625,-0.109375 -0.21875,0 -0.953125,0.078125 -1.21875,0.109375 -0.078125,0 -0.1875,0.015625 -0.1875,0.203125 0,0.109375 0.109375,0.109375 0.25,0.109375 0.484375,0 0.5,0.09375 0.5,0.171875 L 1.75,-6.125 0.484375,-1.140625 C 0.453125,-1.03125 0.4375,-0.96875 0.4375,-0.8125 c 0,0.578125 0.4375,0.921875 0.90625,0.921875 0.328125,0 0.578125,-0.203125 0.75,-0.5625 0.171875,-0.375 0.296875,-0.953125 0.296875,-0.96875 0,-0.109375 -0.09375,-0.109375 -0.125,-0.109375 -0.09375,0 -0.109375,0.046875 -0.125,0.1875 C 1.96875,-0.703125 1.78125,-0.109375 1.375,-0.109375 c -0.296875,0 -0.296875,-0.3125 -0.296875,-0.453125 0,-0.25 0.015625,-0.296875 0.0625,-0.484375 z m 0,0"
               id="id-772ed7a3-69d5-468c-b936-9f7d2b59e5fd" />
          </g>
        </g>
        <g
           style="fill:#000000;fill-opacity:1"
           id="id-1caac90a-98cd-4cd0-a305-56a35e2867e0">
          <g
             transform="translate(159.987,136.259)"
             id="g31">
            <path
               style="stroke:none;stroke-width:0"
               d="m 2.265625,-4.359375 c 0,-0.109375 -0.09375,-0.265625 -0.28125,-0.265625 -0.1875,0 -0.390625,0.1875 -0.390625,0.390625 0,0.109375 0.078125,0.265625 0.28125,0.265625 0.1875,0 0.390625,-0.203125 0.390625,-0.390625 z M 0.84375,-0.8125 c -0.03125,0.09375 -0.0625,0.171875 -0.0625,0.296875 0,0.328125 0.265625,0.578125 0.65625,0.578125 0.6875,0 1,-0.953125 1,-1.0625 0,-0.09375 -0.09375,-0.09375 -0.109375,-0.09375 -0.09375,0 -0.109375,0.046875 -0.140625,0.125 -0.15625,0.5625 -0.453125,0.84375 -0.734375,0.84375 -0.140625,0 -0.171875,-0.09375 -0.171875,-0.25 0,-0.15625 0.046875,-0.28125 0.109375,-0.4375 C 1.46875,-1 1.546875,-1.1875 1.609375,-1.375 1.671875,-1.546875 1.9375,-2.171875 1.953125,-2.265625 1.984375,-2.328125 2,-2.40625 2,-2.484375 2,-2.8125 1.71875,-3.078125 1.34375,-3.078125 0.640625,-3.078125 0.328125,-2.125 0.328125,-2 c 0,0.078125 0.09375,0.078125 0.125,0.078125 0.09375,0 0.09375,-0.03125 0.125,-0.109375 C 0.75,-2.625 1.0625,-2.875 1.3125,-2.875 c 0.109375,0 0.171875,0.046875 0.171875,0.234375 0,0.171875 -0.03125,0.265625 -0.203125,0.703125 z m 0,0"
               id="id-9a23adf0-f0fe-47b7-8ac0-da56f38dfe71" />
          </g>
        </g>
      </g>
    </g>
  </g>
</svg>
