<?xml version="1.0" encoding="UTF-8" standalone="no"?>
<svg width="300" height="300" viewport-fill="#FFFFFF" style="background-color: #FFFFFF; stroke-width: 0px;" xmlns="http://www.w3.org/2000/svg">
<path d="M153.6698 56.979004C153.66158 56.88863 153.69855 56.822918 153.64514 56.707886 153.59174 56.592854 153.59175 56.477802 153.34937 56.28882 153.10698 56.099834 152.64276 55.78761 152.19086 55.573975 151.73895 55.36034 151.22542 55.11794 150.63794 55.00702 150.05046 54.8961 149.48355 54.87558 148.66602 54.908447 147.84848 54.941315 146.52972 55.154926 145.73273 55.204224 144.93573 55.25352 144.78784 55.10973 143.88403 55.204224 142.98022 55.298717 141.30818 55.62739 140.30988 55.77118 139.31157 55.914967 138.70355 55.91084 137.89423 56.066956 137.0849 56.223072 136.25505 56.387432 135.45395 56.707886 134.65285 57.02834 133.80244 57.529552 133.08762 57.989685 132.37279 58.449818 131.79353 59.000336 131.16498 59.46869 130.53642 59.937042 129.99 60.146576 129.31625 60.799805 128.6425 61.453033 127.685326 62.65677 127.1225 63.38806 126.55967 64.119354 126.3378 64.55487 125.9393 65.18756 125.5408 65.82025 125.06428 66.48579 124.73151 67.184204 124.398735 67.88262 124.21384 68.67141 123.94269 69.37805 123.67154 70.084694 123.47846 70.57364 123.104614 71.42407 122.73077 72.274506 122.04467 73.60146 121.699585 74.48065 121.3545 75.35984 121.22306 75.97204 121.03409 76.69922 120.845116 77.4264 120.71363 78.07549 120.565735 78.84375 120.41784 79.61201 120.26176 80.437805 120.14673 81.30878 120.0317 82.17975 119.883766 82.97265 119.87555 84.06958 119.86733 85.16651 119.970055 86.85507 120.09741 87.89038 120.22477 88.92569 120.409645 89.48441 120.63971 90.28143 120.869774 91.07845 121.01767 91.764534 121.47778 92.672485 121.9379 93.58044 122.57053 94.69793 123.40039 95.729126 124.23025 96.76032 125.45453 97.74221 126.45694 98.85968 127.45935 99.97715 128.31796 101.36578 129.41486 102.43396 130.51175 103.50214 132.01538 104.4676 133.03833 105.26874 134.06128 106.06988 134.5707 106.64096 135.55255 107.24078 136.53441 107.84061 137.58612 108.35413 138.9295 108.867676 140.27289 109.38122 142.0723 110.02212 143.61288 110.32202 145.15347 110.621925 146.80907 110.68765 148.173 110.667114 149.53694 110.646576 150.43254 110.40832 151.79648 110.19879 153.16042 109.989265 155.14877 109.664696 156.3566 109.40997 157.56442 109.15525 158.02866 109.019684 159.0434 108.67047 160.05814 108.32126 161.47546 107.74197 162.445 107.3147 163.41455 106.88743 163.88698 106.78475 164.86063 106.10687 165.83427 105.42899 167.52684 104.08143 168.28687 103.24744 169.04689 102.413445 168.98938 101.87939 169.42075 101.102905 169.85211 100.32642 170.34099 99.62388 170.87506 98.58856 171.40913 97.553246 172.21436 95.90576 172.62518 94.89099 173.03601 93.87622 173.0894 93.54757 173.34 92.49994 173.59059 91.45231 173.96445 89.64875 174.12878 88.605225 174.29312 87.5617 174.26848 87.101524 174.32599 86.23877 174.3835 85.376015 174.44101 84.32844 174.47388 83.42871 174.50674 82.528984 174.55193 81.678505 174.52316 80.84039 174.4944 80.00228 174.42047 79.17239 174.30133 78.400024 174.18219 77.627655 174.05074 77.12644 173.80835 76.20618 173.56596 75.28591 173.19211 73.76172 172.84702 72.87842 172.50192 71.99512 172.22667 71.806114 171.7378 70.90637 171.24892 70.00663 170.41086 68.36328 169.91376 67.47998 169.41666 66.59668 169.33449 66.3584 168.75522 65.60657 168.17595 64.85474 167.06262 63.75368 166.43817 62.968994 165.81372 62.184307 165.39879 61.350353 165.00851 60.898438 164.61824 60.44652 164.45392 60.56563 164.0965 60.257507 163.73907 59.949383 163.25018 59.3537 162.86401 59.049683 162.47784 58.745667 162.24368 58.671703 161.77945 58.43341 161.31522 58.195118 160.90851 58.04721 160.07864 57.619934 159.24878 57.192657 157.45761 56.239502 156.8003 55.86975 156.14297 55.5 156.13477 55.40143 156.13477 55.40143" fill="none" stroke="#000000" stroke-opacity="1.000000" stroke-width="5" stroke-linecap="round" />
<path d="M103.90277 239.26715C103.878136 239.19319 103.82886 239.04529 103.82886 239.04529 103.82886 239.04529 104.00959 239.26715 104.346466 239.4397 104.68334 239.61224 105.27906 239.82173 105.8501 240.08057 106.421135 240.3394 107.09896 240.70918 107.772705 240.99268 108.44645 241.27617 109.144875 241.55554 109.89258 241.7815 110.64028 242.00745 111.441376 242.17174 112.25891 242.34839 113.07645 242.52504 113.97614 242.67299 114.79779 242.84143 115.61944 243.00987 116.21102 243.1783 117.18878 243.35907 118.16654 243.53984 119.64139 243.7165 120.66434 243.92603 121.68729 244.13554 122.369255 244.38203 123.32648 244.61621 124.2837 244.85039 125.42579 245.12563 126.40765 245.33105 127.38952 245.53648 128.05913 245.7296 129.21765 245.84875 130.37617 245.96791 132.14273 245.96379 133.35876 246.04596 134.5748 246.12813 135.50323 246.2925 136.51385 246.3418 137.52448 246.3911 138.16536 246.36646 139.42249 246.3418 140.67961 246.31714 142.55296 246.23083 144.05658 246.19385 145.5602 246.15686 146.88303 246.18971 148.44415 246.11987 150.00528 246.05003 152.02654 245.89392 153.42334 245.77478 154.82014 245.65564 155.7486 245.50774 156.82495 245.40503 157.9013 245.30232 158.91605 245.24484 159.88147 245.15857 160.8469 245.0723 161.73425 244.96545 162.61752 244.88739 163.5008 244.80933 164.0554 244.75592 165.18106 244.69019 166.30672 244.62445 168.26634 244.58336 169.37146 244.49298 170.47658 244.4026 171.03528 244.27934 171.81174 244.14789 172.5882 244.01643 173.17567 243.82748 174.03018 243.70422 174.88469 243.58096 176.13358 243.51515 176.93878 243.40833 177.74399 243.3015 178.30273 243.19469 178.86145 243.06323 179.42017 242.93178 179.8433 242.76335 180.2911 242.61957 180.7389 242.47578 181.07166 242.34024 181.54822 242.20056 182.02478 242.06088 182.49313 241.9787 183.15045 241.7815 183.80777 241.58429 184.94574 241.21864 185.49213 241.01733 186.03851 240.81602 186.21107 240.68864 186.4288 240.57361 186.64653 240.45857 186.79852 240.32709 186.79852 240.32709 186.79852 240.32709 186.70816 240.34767 186.60135 240.45038 186.49454 240.55309 186.15765 240.94336 186.15765 240.94336" fill="#D0D0D0" stroke="#BBBBBB" fill-opacity="0.000000" stroke-opacity="1.000000" stroke-width="5" stroke-linecap="round" />
<path d="M102.49774 237.68951C102.74424 237.52519 102.92912 237.68132 103.23724 237.19653 103.545364 236.71175 103.77953 235.89418 104.346466 234.78082 104.9134 233.66747 105.85418 231.95018 106.638855 230.51636 107.42353 229.08253 108.17535 227.67336 109.054504 226.17792 109.93366 224.68248 110.57864 223.53627 111.91382 221.5437 113.24899 219.55113 115.47567 216.46982 117.06555 214.22253 118.65543 211.97525 120.1426 210.06078 121.453125 208.06 122.76365 206.05922 123.83179 204.16936 124.92868 202.2179 126.02557 200.26643 126.66234 198.92714 128.03448 196.3512 129.40663 193.77525 131.69904 189.36287 133.16156 186.76227 134.62408 184.16167 135.62239 182.82234 136.80966 180.74762 137.99693 178.6729 139.00755 176.83234 140.28522 174.3139 141.56288 171.79547 143.18153 168.54575 144.47562 165.63702 145.7697 162.7283 146.75977 159.6265 148.04974 156.86157 149.33972 154.09665 150.90088 151.57002 152.21552 149.04749 153.53015 146.52495 154.88586 143.71483 155.93756 141.72638 156.98926 139.73793 157.58495 138.73958 158.52573 137.11676 159.4665 135.49394 160.57986 133.7109 161.58228 131.9895 162.58469 130.2681 163.57475 128.32896 164.54019 126.78833 165.50563 125.2477 166.3396 124.27814 167.37488 122.74573 168.41016 121.21332 169.77818 119.10575 170.75183 117.59387 171.72548 116.08199 172.3992 114.993225 173.21674 113.67444 174.03427 112.35565 174.92578 111.21356 175.65704 109.68115 176.3883 108.14874 177.05383 105.87683 177.60434 104.47998 178.15485 103.08313 178.6848 102.154594 178.96005 101.30005 179.2353 100.4455 179.14905 99.784096 179.25586 99.35272 179.36267 98.92135 179.55577 98.826836 179.60095 98.71179 179.64613 98.59675 179.52698 98.662476 179.52698 98.662476 179.52698 98.662476 178.98468 99.574585 178.98468 99.574585" fill="#D0D0D0" stroke="#000000" fill-opacity="0.000000" stroke-opacity="1.000000" stroke-width="5" stroke-linecap="round" />
<path d="M100.77231 236.97467C101.13383 236.16121 101.46659 236.16533 101.85687 234.5343 102.247154 232.90327 102.51421 229.99866 103.11401 227.18854 103.71381 224.37842 104.83535 220.79182 105.45569 217.67358 106.07603 214.55534 106.41702 211.5973 106.83606 208.47906 107.2551 205.36082 107.6618 203.25735 107.96991 198.96411 108.27802 194.67087 108.41772 187.29222 108.68475 182.7196 108.95179 178.14699 109.337975 176.01477 109.57214 171.52844 109.80631 167.04211 109.80631 160.73167 110.08978 155.80164 110.37325 150.8716 110.93197 145.79778 111.27295 141.94824 111.61393 138.09871 111.92206 135.6953 112.13568 132.7044 112.349304 129.71352 112.47663 126.763695 112.55469 124.00287 112.632744 121.24204 112.59579 118.74006 112.604004 116.139465 112.61222 113.53887 112.608116 111.677765 112.604004 108.39929 112.59989 105.12082 112.63275 99.7471 112.579346 96.46863 112.52594 93.190155 112.361626 91.053795 112.28357 88.728455 112.20551 86.403114 112.03708 84.579 112.11102 82.5166 112.18497 80.4542 112.60809 78.29321 112.727234 76.354065 112.846375 74.41492 112.78478 72.61545 112.82587 70.881714 112.86695 69.14798 112.83819 67.59089 112.973755 65.95166 113.10932 64.31243 113.56945 61.8721 113.63928 61.046326 113.709114 60.22055 113.44617 60.960033 113.39276 60.99701 113.339355 61.033985 113.31885 61.26819 113.31885 61.26819" fill="#D0D0D0" stroke="#000000" fill-opacity="0.000000" stroke-opacity="1.000000" stroke-width="5" stroke-linecap="round" />
<path d="M104.79016 233.10461C105.26672 232.29936 105.65702 231.9419 106.21985 230.68884 106.78268 229.43579 107.6084 227.00368 108.167114 225.5863 108.72583 224.16893 108.89429 223.77452 109.57214 222.18457 110.25 220.59462 111.51121 217.85431 112.23425 216.04663 112.9573 214.23895 113.28184 213.26532 113.9104 211.3385 114.53896 209.41168 115.344185 206.41254 116.005615 204.48572 116.667046 202.5589 117.192894 201.4538 117.87897 199.77759 118.56504 198.10138 119.1361 196.72505 120.12207 194.42847 121.10804 192.13188 122.685585 188.76715 123.7948 185.99811 124.904015 183.22906 125.894104 180.0245 126.777374 177.81421 127.660645 175.60391 128.3344 174.61797 129.09442 172.73633 129.85445 170.85469 130.61859 168.44713 131.33752 166.52441 132.05646 164.6017 132.68912 162.78993 133.40805 161.20001 134.12698 159.61009 134.89932 158.42279 135.65112 156.98486 136.40292 155.54694 136.9288 154.7129 137.91888 152.57245 138.90897 150.43199 140.58102 146.6975 141.59164 144.14209 142.60226 141.58669 143.21027 139.26137 143.9826 137.24005 144.75494 135.21873 145.69574 133.61232 146.22571 132.01416 146.75568 130.416 146.8543 128.78914 147.16241 127.65112 147.47054 126.513115 147.84435 126.007774 148.0744 125.1861 148.30446 124.36442 148.37842 123.48523 148.54276 122.72107 148.70709 121.95691 148.8632 121.159874 149.0604 120.601135 149.25758 120.0424 149.52051 119.64391 149.72592 119.36865 149.93134 119.09339 150.08333 119.15501 150.29285 118.949585 150.50237 118.74416 150.73242 118.3785 150.98303 118.13611 151.23364 117.893715 151.58286 117.676 151.79648 117.49524 152.0101 117.314476 152.14566 117.23228 152.2648 117.05151 152.38394 116.87075 152.45378 116.65304 152.51129 116.410645 152.5688 116.16825 152.57703 115.798485 152.6099 115.59717 152.64276 115.39585 152.7085 115.20276 152.7085 115.20276 152.7085 115.20276 152.14154 115.52319 152.14154 115.52319" fill="#D0D0D0" stroke="#000000" fill-opacity="0.000000" stroke-opacity="1.000000" stroke-width="5" stroke-linecap="round" />
<path d="M104.223206 233.42505C104.54365 233.29358 104.8682 233.42915 105.18454 233.03064 105.50088 232.63213 105.79256 231.8556 106.121216 231.03394 106.449875 230.21227 106.74156 229.2386 107.156494 228.10059 107.57143 226.96257 107.84257 226.00533 108.61081 224.20587 109.37905 222.40642 110.89088 219.86745 111.76593 217.30383 112.64098 214.74022 113.24899 211.13312 113.861115 208.82422 114.473236 206.51532 114.78134 205.97298 115.43866 203.45044 116.09598 200.9279 117.12716 196.35118 117.80502 193.68896 118.48289 191.02675 118.96355 189.64632 119.50583 187.47711 120.04811 185.3079 120.49589 183.41399 121.058716 180.6737 121.621544 177.93343 122.356926 174.15776 122.88278 171.0354 123.40864 167.91304 123.7291 164.42918 124.21387 161.93951 124.69863 159.44984 125.31072 157.97083 125.79138 156.09741 126.27204 154.224 126.60074 152.83539 127.09784 150.69904 127.59494 148.56268 128.39192 145.23488 128.77399 143.2793 129.15605 141.32372 129.15192 140.51031 129.3902 138.96558 129.62848 137.42084 129.99002 135.48988 130.20364 134.01086 130.41727 132.53185 130.40904 131.48424 130.67197 130.09149 130.93489 128.69875 131.51004 126.94445 131.78119 125.65442 132.05234 124.36439 132.15092 123.275696 132.29883 122.35132 132.44673 121.42694 132.61517 120.83945 132.66858 120.108154 132.72198 119.37686 132.66446 118.75647 132.61926 117.96356 132.57407 117.170654 132.4344 116.04501 132.39743 115.35071 132.36046 114.6564 132.32349 114.26609 132.39743 113.79773 132.47137 113.32937 132.75075 113.0171 132.84113 112.54053 132.9315 112.06396 132.90686 111.27518 132.93973 110.93829 132.9726 110.60141 133.03833 110.519226 133.03833 110.519226 133.03833 110.519226 132.81647 111.40662 132.81647 111.40662" fill="#D0D0D0" stroke="#000000" fill-opacity="0.000000" stroke-opacity="1.000000" stroke-width="5" stroke-linecap="round" />
<path d="M188.6719 238.62622C188.65547 238.28113 188.62262 238.23184 188.62262 237.59094 188.62262 236.95004 188.6719 236.13658 188.6719 234.78082 188.6719 233.42506 188.7089 231.51875 188.62262 229.45636 188.53635 227.39397 188.27748 224.87144 188.15424 222.40643 188.03099 219.94142 188.05977 217.50925 187.88312 214.66626 187.70647 211.82327 187.39423 209.37471 187.09433 205.34851 186.79443 201.32231 186.44934 194.59692 186.08371 190.5091 185.71808 186.42126 185.20044 184.16985 184.90054 180.82153 184.60065 177.47322 184.41165 174.73708 184.2843 170.41919 184.15695 166.1013 184.26787 159.84016 184.13641 154.91425 184.00496 149.98833 183.69273 144.58173 183.49554 140.86365 183.29836 137.14557 183.06416 135.47752 182.95325 132.60577 182.84233 129.73402 182.85878 126.570595 182.83002 123.63312 182.80125 120.69564 182.86287 118.30045 182.7807 114.980896 182.69853 111.66134 182.49722 106.73129 182.337 103.71576 182.17679 100.700226 182.04121 99.11853 181.81937 96.887695 181.59752 94.65686 181.22368 92.068596 181.00595 90.33075 180.78822 88.5929 180.51297 86.46063 180.51297 86.46063 180.51297 86.46063 180.24182 86.78113 180.24182 86.78113" fill="#D0D0D0" stroke="#000000" fill-opacity="0.000000" stroke-opacity="1.000000" stroke-width="5" stroke-linecap="round" />
<path d="M185.44281 236.92535C184.72798 235.8161 184.15285 234.95335 183.29834 233.5976 182.44383 232.24184 181.60164 231.30515 180.31577 228.79083 179.02989 226.27652 177.11136 221.74501 175.5831 218.51172 174.05484 215.27843 172.66626 212.4806 171.14621 209.39111 169.62616 206.30162 167.9952 203.1957 166.46283 199.97473 164.93047 196.75377 163.66516 193.40958 161.95203 190.06537 160.23889 186.72116 158.09435 183.19618 156.18402 179.90948 154.2737 176.62279 152.68794 174.47002 150.49005 170.34521 148.29216 166.22041 145.63823 160.30849 142.99664 155.1607 140.35506 150.01292 136.94522 143.87917 134.6405 139.45856 132.33578 135.03795 131.51006 132.74545 129.16837 128.63708 126.82668 124.52872 122.87868 118.78113 120.59039 114.80835 118.30211 110.83557 117.13125 108.06656 115.43866 104.800415 113.74607 101.53427 111.971344 97.79977 110.434875 95.21149 108.89841 92.62321 107.37426 90.527916 106.21985 89.27075 105.06544 88.01359 103.50839 87.66852 103.50839 87.66852" fill="#D0D0D0" stroke="#000000" fill-opacity="0.000000" stroke-opacity="1.000000" stroke-width="5" stroke-linecap="round" />
<path d="M188.54865 234.50964C188.39253 232.7677 188.37611 231.43658 188.08032 229.28381 187.78453 227.13104 187.59143 225.0194 186.7739 221.59302 185.95636 218.16664 183.98851 212.49707 183.17508 208.72559 182.36165 204.9541 182.29591 202.35352 181.89331 198.96411 181.4907 195.5747 181.2812 191.8443 180.75946 188.38916 180.23772 184.93402 179.39143 181.68431 178.76288 178.23328 178.13432 174.78224 177.5879 171.16687 176.9881 167.68298 176.38829 164.1991 175.80084 160.56734 175.16406 157.32996 174.52728 154.09258 173.85353 151.33173 173.16745 148.25867 172.48137 145.18561 171.67206 142.44533 171.0476 138.8916 170.42316 135.33788 169.93428 129.78749 169.42075 126.93628 168.90721 124.085075 168.58678 123.72351 167.96643 121.78436 167.34608 119.845215 166.4012 116.80094 165.6987 115.30139 164.9962 113.80184 164.15811 113.222534 163.7514 112.78705 163.3447 112.35156 163.25842 112.68848 163.25842 112.68848" fill="#D0D0D0" stroke="#000000" fill-opacity="0.000000" stroke-opacity="1.000000" stroke-width="5" stroke-linecap="round" />
<path d="M186.37952 232.80884C186.49455 232.06111 187.05737 232.37335 186.72461 230.56567 186.39185 228.758 185.21687 224.8222 184.3829 221.96277 183.54893 219.10333 182.73961 216.53142 181.72076 213.40906 180.70192 210.2867 179.45714 206.8809 178.26987 203.22858 177.0826 199.57625 175.91174 195.62813 174.5971 191.49512 173.28247 187.3621 171.85283 182.51831 170.38208 178.43048 168.91133 174.34265 167.25572 170.76837 165.77264 166.96814 164.28957 163.16791 162.85168 159.50328 161.48364 155.62909 160.1156 151.7549 158.78046 147.56024 157.56442 143.72302 156.34839 139.8858 155.3172 135.68294 154.18744 132.60577 153.05768 129.52861 151.9197 127.67162 150.78583 125.26001 149.65196 122.8484 148.3825 119.952 147.38422 118.13611 146.38593 116.32021 145.3712 114.97677 144.79605 114.364624 144.2209 113.75248 143.93335 114.46326 143.93335 114.46326" fill="#D0D0D0" stroke="#000000" fill-opacity="0.000000" stroke-opacity="1.000000" stroke-width="5" stroke-linecap="round" />
</svg>